<svg width="28" height="28" viewBox="0 0 28 28" fill="none" xmlns="http://www.w3.org/2000/svg">
<path d="M14 13.2222C10.4101 13.2222 7.5 10.4862 7.5 7.11111C7.5 3.73604 10.4101 1 14 1C17.5899 1 20.5 3.73604 20.5 7.11111C20.5 10.4862 17.5899 13.2222 14 13.2222ZM14 13.2222V23" stroke="white" stroke-width="2" stroke-linecap="round" stroke-linejoin="round"/>
<path fill-rule="evenodd" clip-rule="evenodd" d="M11.2046 18.5598C11.3037 19.0328 11.0006 19.4966 10.5277 19.5957C8.99604 19.9166 7.7521 20.4333 6.91418 21.0357C6.06475 21.6463 5.75 22.2496 5.75 22.7503C5.75 23.4292 6.35324 24.301 7.92516 25.0549C9.43382 25.7785 11.5795 26.2503 13.997 26.2503C16.4145 26.2503 18.5602 25.7785 20.0688 25.0549C21.6408 24.301 22.244 23.4292 22.244 22.7503C22.244 22.2496 21.9293 21.6463 21.0798 21.0357C20.2419 20.4333 18.998 19.9166 17.4663 19.5957C16.9934 19.4966 16.6903 19.0328 16.7894 18.5598C16.8885 18.0869 17.3523 17.7838 17.8253 17.8829C19.5154 18.2371 21.008 18.8288 22.1013 19.6147C23.183 20.3923 23.994 21.4569 23.994 22.7503C23.994 24.4876 22.5552 25.8033 20.8256 26.6328C19.0328 27.4927 16.6174 28.0003 13.997 28.0003C11.3766 28.0003 8.96124 27.4927 7.16838 26.6328C5.43879 25.8033 4 24.4876 4 22.7503C4 21.4569 4.811 20.3923 5.89274 19.6147C6.98599 18.8288 8.47865 18.2371 10.1687 17.8829C10.6417 17.7838 11.1055 18.0869 11.2046 18.5598Z" fill="white"/>
</svg>
