<svg width="33" height="28" viewBox="0 0 33 28" fill="none" xmlns="http://www.w3.org/2000/svg">
<g clip-path="url(#clip0_855_168)">
<path d="M30.1899 19.0102C30.8656 17.3672 29.1613 15.1092 27.0553 14.2431C24.9493 13.377 22.1495 13.7827 21.4739 15.4256C20.7982 17.0685 22.4131 17.9952 25.0639 19.0854C27.7146 20.1755 29.5143 20.6531 30.1899 19.0102Z" fill="#0F0F0F" stroke="#9B9B9B" stroke-width="1.75" stroke-linecap="round" stroke-linejoin="round"/>
<path d="M25.1789 10.5464C24.5373 12.1064 24.8533 15.0359 26.4579 15.6958C28.0625 16.3557 30.348 14.4961 30.9896 12.9361C31.6312 11.3761 30.8505 9.57649 29.2459 8.91659C27.6413 8.25668 25.8205 8.98637 25.1789 10.5464Z" fill="#0F0F0F" stroke="#9B9B9B" stroke-width="1.75" stroke-linecap="round" stroke-linejoin="round"/>
<path d="M2.76785 19.6122C1.94852 18.036 3.44491 15.6351 5.46541 14.5849C7.48591 13.5346 10.3107 13.6893 11.13 15.2655C11.9493 16.8417 10.4234 17.9085 7.88024 19.2305C5.33711 20.5524 3.58717 21.1884 2.76785 19.6122Z" fill="#0F0F0F" stroke="#9B9B9B" stroke-width="1.75" stroke-linecap="round" stroke-linejoin="round"/>
<path d="M7.005 10.7356C7.78297 12.2323 7.72916 15.1783 6.18973 15.9785C4.6503 16.7787 2.20821 15.1301 1.43023 13.6334C0.652251 12.1368 1.26953 10.2748 2.80896 9.47457C4.34839 8.67437 6.22702 9.23896 7.005 10.7356Z" fill="#0F0F0F" stroke="#9B9B9B" stroke-width="1.75" stroke-linecap="round" stroke-linejoin="round"/>
<path d="M25.7864 21.118C25.7864 17.5545 20.9017 14.6657 16.3336 14.6657C11.7656 14.6657 6.88086 17.5545 6.88086 21.118C6.88086 24.6816 10.584 25.1687 16.3336 25.1687C22.0833 25.1687 25.7864 24.6816 25.7864 21.118Z" fill="#0F0F0F"/>
<path d="M5.89949 24.5728L6.81086 23.8445L5.89949 24.5728C6.66578 25.5316 7.704 26.1111 8.76245 26.4762C10.7904 27.1757 13.5004 27.2807 16.3336 27.2807C19.1668 27.2807 21.8768 27.1757 23.9048 26.4762C24.9632 26.1111 26.0014 25.5316 26.7677 24.5728L25.8564 23.8445L26.7677 24.5728C27.5572 23.585 27.8984 22.3951 27.8984 21.118C27.8984 18.3191 26.0078 16.1424 23.9259 14.786C21.7901 13.3944 19.0262 12.5537 16.3336 12.5537C13.641 12.5537 10.8771 13.3944 8.74132 14.786C6.65938 16.1424 4.76888 18.3191 4.76888 21.118C4.76888 22.3951 5.10998 23.585 5.89949 24.5728ZM8.99277 21.118C8.99277 20.3496 9.54936 19.3008 11.0471 18.325C12.4956 17.3812 14.4582 16.7776 16.3336 16.7776C18.209 16.7776 20.1716 17.3812 21.6202 18.325C23.1179 19.3008 23.6745 20.3496 23.6745 21.118C23.6745 21.6214 23.5534 21.8292 23.4682 21.9358C23.3601 22.071 23.1129 22.2813 22.5275 22.4832C21.2671 22.9179 19.2518 23.0568 16.3336 23.0568C13.4155 23.0568 11.4002 22.9179 10.1398 22.4832C9.55437 22.2813 9.3071 22.071 9.19906 21.9358C9.11386 21.8292 8.99277 21.6214 8.99277 21.118Z" fill="#9B9B9B" stroke="#0F0F0F" stroke-width="2.33333" stroke-linecap="round" stroke-linejoin="round"/>
<path d="M10.031 9.239C10.031 12.6227 12.8525 17.8165 16.3329 17.8165C19.8133 17.8165 22.6348 12.6227 22.6348 9.239C22.6348 5.85526 19.8133 3.11219 16.3329 3.11219C12.8525 3.11219 10.031 5.85525 10.031 9.239Z" fill="#0F0F0F"/>
<path d="M16.3339 19.9281C19.1444 19.9281 21.2737 17.8903 22.5506 15.9627C23.8738 13.9655 24.7477 11.4221 24.7477 9.23866C24.7477 4.63162 20.923 0.99991 16.3339 0.99991C11.7448 0.999909 7.92011 4.63162 7.92011 9.23866C7.92011 11.4221 8.79407 13.9655 10.1172 15.9627C11.3942 17.8903 13.5234 19.9281 16.3339 19.9281ZM20.5238 9.23866C20.5238 10.4391 19.9869 12.1845 19.0294 13.6299C18.0287 15.1405 17.0073 15.7042 16.3339 15.7042C15.6605 15.7042 14.6392 15.1405 13.6385 13.6299C12.6809 12.1845 12.144 10.4391 12.144 9.23866C12.144 7.07535 13.9651 5.2238 16.3339 5.2238C18.7027 5.2238 20.5238 7.07535 20.5238 9.23866Z" fill="#9B9B9B" stroke="#0F0F0F" stroke-width="2.33333" stroke-linecap="round" stroke-linejoin="round"/>
</g>
<defs>
<clipPath id="clip0_855_168">
<rect width="32.6667" height="28" fill="white"/>
</clipPath>
</defs>
</svg>
