<svg width="28" height="28" viewBox="0 0 28 28" fill="none" xmlns="http://www.w3.org/2000/svg">
<circle cx="13.9998" cy="14" r="11.8333" stroke="#9B9B9B" stroke-width="2"/>
<path fill-rule="evenodd" clip-rule="evenodd" d="M19.7459 16.1332C21.329 17.1646 22.6665 18.7559 22.6665 20.7306C22.6665 22.6584 21.5076 24.215 19.9285 25.2361C18.3486 26.2577 16.2446 26.8284 14.0001 26.8284C11.6941 26.8284 9.58679 26.081 8.03634 24.9963C6.5407 23.9499 5.33364 22.4106 5.33364 20.7306C5.33364 18.7559 6.67117 17.1646 8.25423 16.1332C8.51399 15.964 8.78634 15.8054 9.06901 15.6585C9.20158 15.8989 9.34289 16.1328 9.49195 16.3578C9.76979 16.7772 10.0938 17.1931 10.4602 17.5739C10.1304 17.7272 9.81754 17.8995 9.52796 18.0882C8.26719 18.9096 7.66697 19.878 7.66697 20.7306C7.66697 21.3017 8.1497 22.2279 9.37389 23.0844C10.5433 23.9025 12.1859 24.495 14.0001 24.495C15.8757 24.495 17.5216 24.0138 18.6615 23.2767C19.8023 22.539 20.3332 21.6301 20.3332 20.7306C20.3332 19.878 19.7329 18.9096 18.4722 18.0882C18.1826 17.8995 17.8696 17.7271 17.5398 17.5738C17.9062 17.1931 18.2302 16.7772 18.508 16.3578C18.6571 16.1328 18.7984 15.8989 18.931 15.6584C19.2137 15.8054 19.4861 15.9639 19.7459 16.1332ZM13.9999 19.2757C15.971 19.2757 17.527 17.8382 18.508 16.3575C19.5137 14.8393 20.1664 12.9176 20.1664 11.3037C20.1664 7.944 17.3744 5.27611 13.9999 5.27611C10.6255 5.27611 7.83342 7.944 7.83342 11.3037C7.83342 12.9176 8.48615 14.8393 9.49191 16.3575C10.4729 17.8382 12.0288 19.2757 13.9999 19.2757ZM17.8331 11.3037C17.8331 12.3745 17.3666 13.8555 16.5628 15.0688C15.7341 16.3196 14.7902 16.9424 13.9999 16.9424C13.2097 16.9424 12.2657 16.3196 11.4371 15.0688C10.6333 13.8555 10.1668 12.3745 10.1668 11.3037C10.1668 9.29419 11.8517 7.60944 13.9999 7.60944C16.1481 7.60944 17.8331 9.29419 17.8331 11.3037Z" fill="#9B9B9B"/>
</svg>
