<svg width="32" height="32" viewBox="0 0 32 32" fill="none" xmlns="http://www.w3.org/2000/svg">
<path d="M14.5366 26.4934H23.1633C28.0966 26.4934 29.3233 25.2668 29.3233 20.3334C27.6166 20.3334 26.2433 18.9468 26.2433 17.2534C26.2433 15.5468 27.6166 14.1601 29.3233 14.1601V12.9334C29.3233 8.0001 28.0966 6.77344 23.1633 6.77344H14.6566V15.8268" stroke="#9B9B9B" stroke-width="1.75" stroke-linecap="round" stroke-linejoin="round"/>
<path d="M14.6579 22.4934V26.4934H10.9646C8.99126 26.4934 7.83126 25.1467 6.55126 22.0534L6.31126 21.4534C7.92459 20.8134 8.71126 18.9467 8.03126 17.3334C7.37792 15.72 5.52459 14.9467 3.89792 15.6134L3.67126 15.04C1.75126 10.3467 2.41792 8.70671 7.11126 6.77337L10.6313 5.33337L14.6579 15.0934V18.4934" stroke="#9B9B9B" stroke-width="1.75" stroke-linecap="round" stroke-linejoin="round"/>
<path d="M10.8829 26.4935H10.6562" stroke="#9B9B9B" stroke-width="1.5" stroke-linecap="round" stroke-linejoin="round"/>
</svg>
