<svg width="14" height="14" viewBox="0 0 14 14" fill="none" xmlns="http://www.w3.org/2000/svg">
<path d="M8.52098 14.0001H8.48398C8.34443 13.9923 8.21101 13.9402 8.1031 13.8514C7.9952 13.7625 7.91844 13.6416 7.88398 13.5061L6.38398 7.61714L0.494983 6.11714C0.359621 6.08269 0.238759 6.006 0.14994 5.8982C0.0611219 5.79041 0.00897046 5.6571 0.00105595 5.51765C-0.00685857 5.3782 0.0298756 5.23986 0.105927 5.1227C0.181978 5.00554 0.293388 4.91567 0.423984 4.86614L13.108 0.0431358C13.2264 -0.00204308 13.3554 -0.0119869 13.4794 0.0145036C13.6034 0.0409942 13.717 0.102787 13.8067 0.192431C13.8963 0.282074 13.9581 0.395739 13.9846 0.519715C14.0111 0.643691 14.0012 0.772684 13.956 0.891135L9.13498 13.5761C9.08784 13.7008 9.00383 13.8082 8.89414 13.8839C8.78445 13.9597 8.65429 14.0002 8.52098 14.0001ZM2.83098 5.35414L7.08498 6.43914C7.19926 6.46832 7.30358 6.52773 7.38698 6.61114C7.47039 6.69454 7.5298 6.79885 7.55898 6.91314L8.64398 11.1671L12.207 1.79014L2.83098 5.35414Z" fill="#BC61F5"/>
</svg>
