<svg width="30" height="30" viewBox="0 0 30 30" fill="none" xmlns="http://www.w3.org/2000/svg">
<path d="M22.525 15.4125L21 13.8875C20.6375 13.575 20.425 13.1125 20.4125 12.6C20.3875 12.0375 20.6125 11.475 21.025 11.0625L22.525 9.5625C23.825 8.2625 24.3125 7.0125 23.9 6.025C23.5 5.05 22.2625 4.5125 20.4375 4.5125H7.375V3.4375C7.375 2.925 6.95 2.5 6.4375 2.5C5.925 2.5 5.5 2.925 5.5 3.4375V26.5625C5.5 27.075 5.925 27.5 6.4375 27.5C6.95 27.5 7.375 27.075 7.375 26.5625V20.4625H20.4375C22.2375 20.4625 23.45 19.9125 23.8625 18.925C24.275 17.9375 23.8 16.7 22.525 15.4125Z" fill="white"/>
</svg>
